# xmcd CD database file
#
# Track frame offsets:
#	150
#	10956
#	23458
#	36720
#	46620
#	59890
#	72999
#	84812
#	97134
#	109284
#	119184
#	131888
#	144467
#	156131
#	174075
#	185558
#	200303
#	220414
#	234161
#	246097
#	257739
#	272589
#	285118
#	299941
#
# Disc length: 4165 seconds
#
# Revision: 0
# Processed by: cddbd v1.5.2PL0 Copyright (c) Steve Scherf et al.
# Submitted via: CDex 1.70beta2
#
DISCID=6b104318
DTITLE=Diverse Best Of Country and Western - Best Of Country and Western
DYEAR=2007
DGENRE=Country
TTITLE0=Dolly Parton - It wasn´t God who made honky tonky angels
TTITLE1=Lee Hazlewood - These boots are made for walking
TTITLE2=Patti Page - Tennessee Waltz
TTITLE3=Johnny Cash - Hey Porter
TTITLE4=Tammy Wynette - D-I-V-O-R-C-E
TTITLE5=The Bellamy Brothers - Get into reggae cowboy
TTITLE6=Frankie Laine - High noon (do not forsake me)
TTITLE7=Ray Price - Let it rain, let her cry
TTITLE8=George Jones and Gene Pitney - Lousiana man
TTITLE9=Elvis Presley - Poor Boy
TTITLE10=Lynn Anderson - Top of the world
TTITLE11=The Bellamy Brothers - Let your love flow
TTITLE12=Johnny Horton - Lost Highway
TTITLE13=Billy Swan - Down by the river
TTITLE14=Freddie Fender - Before the next teardrop falls
TTITLE15=Roger Miller - Me and Bobby McGee
TTITLE16=Emmylou Harris &Gram Parsons - Love hurts
TTITLE17=Willie Nelson - Home is where you´re happy
TTITLE18=George Jones and Gene Pitney - Your old standby
TTITLE19=Dave Dudley - Six days on the road
TTITLE20=Kenny Rogers - Crazy
TTITLE21=Johnny Cash - Folsom prison blues
TTITLE22=The Kingston Trio - Tom Dooley
TTITLE23=Johnny Horton - North to Alaska
EXTD=YEAR: 2007
EXTT0=
EXTT1=
EXTT2=
EXTT3=
EXTT4=
EXTT5=
EXTT6=
EXTT7=
EXTT8=
EXTT9=
EXTT10=
EXTT11=
EXTT12=
EXTT13=
EXTT14=
EXTT15=
EXTT16=
EXTT17=
EXTT18=
EXTT19=
EXTT20=
EXTT21=
EXTT22=
EXTT23=
PLAYORDER=
